<?xml version="1.0" encoding="UTF-8" standalone="no"?>
<!-- Created with Inkscape (http://www.inkscape.org/) -->

<svg
   xmlns:dc="http://purl.org/dc/elements/1.1/"
   xmlns:cc="http://creativecommons.org/ns#"
   xmlns:rdf="http://www.w3.org/1999/02/22-rdf-syntax-ns#"
   xmlns:svg="http://www.w3.org/2000/svg"
   xmlns="http://www.w3.org/2000/svg"
   xmlns:sodipodi="http://sodipodi.sourceforge.net/DTD/sodipodi-0.dtd"
   xmlns:inkscape="http://www.inkscape.org/namespaces/inkscape"
   width="200"
   height="108.125"
   id="svg5075"
   version="1.1"
   inkscape:version="0.48.5 r10040"
   sodipodi:docname="logo.svg">
  <defs
     id="defs5077" />
  <sodipodi:namedview
     id="base"
     pagecolor="#ffffff"
     bordercolor="#666666"
     borderopacity="1.0"
     inkscape:pageopacity="0.0"
     inkscape:pageshadow="2"
     inkscape:zoom="3.610837677247444"
     inkscape:cx="53.70818469190533"
     inkscape:cy="8.554207343286897"
     inkscape:document-units="px"
     inkscape:current-layer="svg5075"
     showgrid="false"
     inkscape:window-width="1280"
     inkscape:window-height="755"
     inkscape:window-x="0"
     inkscape:window-y="0"
     inkscape:window-maximized="0"
     showborder="true"
     fit-margin-top="0"
     fit-margin-left="0"
     fit-margin-right="0"
     fit-margin-bottom="0" />
  <metadata
     id="metadata5080">
    <rdf:RDF>
      <cc:Work
         rdf:about="">
        <dc:format>image/svg+xml</dc:format>
        <dc:type
           rdf:resource="http://purl.org/dc/dcmitype/StillImage" />
        <dc:title />
      </cc:Work>
    </rdf:RDF>
  </metadata>
  <path
     style="font-size:medium;font-style:normal;font-variant:normal;font-weight:normal;font-stretch:normal;text-indent:0;text-align:start;text-decoration:none;line-height:125%;letter-spacing:-0.7599999905;word-spacing:0;text-transform:none;direction:ltr;block-progression:tb;writing-mode:lr-tb;text-anchor:start;baseline-shift:baseline;color:#000000;fill:#5c3566;fill-opacity:1;stroke:none;stroke-width:0.6999999881;marker:none;visibility:visible;display:inline;overflow:visible;enable-background:accumulate;font-family:FoundryMonoline;-inkscape-font-specification:FoundryMonoline"
     d="M 63.375,0 C 28.5254,0 0,28.52547000000044 0,63.3750000000002 c 0,4.85247000000003 0.6145000000000352,9.59369999999984 1.625,14.06249999999999 l 28.5,-6.5 c -0.56129999999996,-2.4820999999999 -0.875,-4.98883000000012 -0.875,-7.56249999999999 0,-19.03179999999992 15.09319999999956,-34.12499999999972 34.125,-34.12499999999972 10.28650000000005,0 19.33860000000004,4.43975999999993 25.625,11.56250000000001 l 11,12.43749999999971 10.9375,-12.4374999999998 c 6.2648,-7.10413 15.386,-11.5625 25.6875,-11.5625 19.0318,0 34.125,15.09320000000007 34.125,34.12499999999969 0,2.57366999999987 -0.3138,5.0804000000001 -0.875,7.56249999999999 l 28.5,6.5 C 199.3855,72.96870000000012 200,68.22747000000032 200,63.37500000000029 200,28.52547000000044 171.4746,0 136.625,0 123.0355,0 110.3772,4.344300000000203 100,11.6875 89.6495,4.361960000000039 76.95140000000003,0 63.375,0 z M 39.9375,79.6875 c -0.92677858969636,2.293753958e-5 -1.82180841013679,0.14919457427959 -2.625,0.4375 -0.79290945545756,0.28835043581481 -1.45495740533759,0.6623525537602 -2.0625,1.1875 -0.60755368500119,0.52519001584224 -1.10870185513636,1.19610470580734 -1.5,1.9375 -0.391306238648,0.74143406404076 -0.69923160294364,1.52104597529591 -0.8125,2.4375 l -0.0625,0.9375 -2.0625,0 -0.25,1.875 c -0.01029833744,0.0412038067344 -8.9587684e-7,0.11543194973957 0,0.1875 -8.9587684e-7,0.27804443710039 0.07494259786,0.46025445066536 0.25,0.625 0.185352511316,0.1544746597296 0.41976508333757,0.3132283872844 0.6875,0.375 l 0.9375,0.1875 -1.5,12.75 4.5,0 0.25,-0.8125 1.4375,-11.9375 3.0625,0 0.4375,-3.25 -3.25,0 0.125,-0.75 c 0.123561312876,-1.05032071845048 0.41160714481316,-1.76528657751564 0.875,-2.1875 0.473672919808,-0.42217551762096 1.08208760977324,-0.6874804142759 1.875,-0.6875 0.236830219656,1.95857241e-5 0.4506479085876,-0.042600881916 0.6875,-0.125 0.236829509136,-0.0823596994976 0.386001145876,-0.23224668696761 0.4375,-0.5 l 0.4375,-2.4375 C 41.503565060912,79.8345483830744 41.18391155361076,79.7912125647044 40.875,79.75 40.57636341378,79.6985357298148 40.2978996726588,79.68752293753959 39.9375,79.6875 z m 95.5,0 c -0.298630732128,2.290664716e-5 -0.5866765640636,0.0536561665624 -0.875,0.1875 -0.2780349995,0.12359181903361 -0.53375780534,0.33597880650359 -0.75,0.5625 -0.216249701492,0.21626812875358 -0.36613668896,0.45139605150386 -0.5,0.75 -0.133869767532,0.29864676523681 -0.250003027448,0.60800283099192 -0.25,0.9375 -3.0274463e-6,0.32953810131799 0.063927674012,0.64919160861808 0.1875,0.9375 0.133863326484,0.28834747015321 0.346250313956,0.5337728344482 0.5625,0.75 0.216242210108,0.21626473059959 0.4719650159464,0.4286517180698 0.75,0.5625 0.288323451384,0.1235873705408 0.576369283318,0.18751807200081 0.875,0.1875 0.308917423148,1.807200104e-5 0.5866658135396,-0.0639126294592 0.875,-0.1875 0.288321675076,-0.13384828193 0.53374703937,-0.34623526940041 0.75,-0.5625 0.22653636162,-0.21622716555162 0.4286259075456,-0.46165252984676 0.5625,-0.75 0.144156412216,-0.288308391382 0.187492230584,-0.60796189868208 0.1875,-0.9375 -7.769416e-6,-0.33979459510721 -0.053641029332,-0.63885321931706 -0.1875,-0.9375 -0.1338741079,-0.29860393305 -0.335963653824,-0.5337318558002 -0.5625,-0.75 -0.216252976076,-0.21622375195159 -0.4616783403712,-0.43890818096648 -0.75,-0.5625 -0.288334201908,-0.1338438334376 -0.5660825922964,-0.18747709335283 -0.875,-0.1875 z M 60.25,86.375 c -0.8649931372264,1.623390843e-5 -1.66519993157155,0.12787763682879 -2.4375,0.375 -0.76201642029956,0.23685666347441 -1.4762669286348,0.56752296304924 -2.125,1 -0.6384451909904,0.43250675535207 -1.23513173795004,0.95496515930726 -1.75,1.5625 -0.51487434783484,0.59726401287215 -0.95209181651,1.2791914951122 -1.3125,2 -0.350114217328,0.71053372285152 -0.61684981544524,1.43651237419192 -0.8125,2.25 -0.185354581104,0.8135056978093 -0.25000063329199,1.6453201675194 -0.25,2.5 -6.332924e-7,1.01945171750904 0.128576120356,1.97841223940922 0.4375,2.8125 0.319219112388,0.83409526742204 0.74613913951724,1.5277508926672 1.3125,2.125 0.5766534364892,0.5869548940343 1.26959371100396,1.0454825965292 2.0625,1.375 0.79289733022596,0.3192204407568 1.6776297091212,0.4999997528616 2.625,0.5 0.76200244152961,-2.471398e-7 1.48655039140964,-0.063930948598 2.125,-0.1875 0.64872865376516,-0.12356917497 1.24613055145516,-0.3050638378056 1.8125,-0.5625 0.5766448484268,-0.2677325688468 1.15202116156716,-0.598398868422 1.6875,-1 0.54575090194599,-0.4118955302305 1.05862721508596,-0.9439360250007 1.625,-1.5 L 64,98.1875 c -0.113284800872,-0.123564711032 -0.230848762248,-0.17791332167599 -0.375,-0.25 -0.144176693016,-0.08237471316 -0.283050888212,-0.1249951808 -0.4375,-0.125 -0.236853079968,4.81920196e-6 -0.43965797662156,-0.00957727162 -0.625,0.0625 -0.18536531617999,0.072086693768 -0.387454862104,0.19923274595799 -0.5625,0.3125 -0.164769923368,0.113276120134 -0.314656910836,0.25143496459799 -0.5,0.375 -0.185364250396,0.12357319097201 -0.38816914705199,0.19923203543601 -0.625,0.3125 -0.2265533215,0.11327540960998 -0.50358636115844,0.2404214618 -0.8125,0.3125 -0.30893192708799,0.072085427184 -0.70281357739396,0.06250333637 -1.125,0.0625 -0.89588411804596,3.33636936e-6 -1.53662183410644,-0.2454220279256 -2,-0.75 -0.45309275690316,-0.50456978561232 -0.72941044583364,-1.28346634613762 -0.75,-2.375 1.83293654756324,-0.185347182394 3.35769129178844,-0.42047510514408 4.5625,-0.75 1.21508642501716,-0.32951037547041 2.226964856102,-0.72410737650542 2.9375,-1.1875 0.72080708384156,-0.47367315150014 1.21165781243155,-1.01744178927524 1.5,-1.625 0.28831367396801,-0.60753806893888 0.43748531070683,-1.26887066808908 0.4375,-2 -1.468929317e-5,-0.49426437385148 -0.13817353376,-1.00570998553164 -0.375,-1.5 -0.23685513430399,-0.49426289102064 -0.60942655079,-0.92118291815072 -1.0625,-1.3125 -0.4531000474884,-0.40158472776176 -1.0181789190832,-0.752845910427 -1.6875,-1 -0.6590468858344,-0.2471223631716 -1.3953229787196,-0.37498376609159 -2.25,-0.375 z m 15,0 c -0.86499313722641,1.623390843e-5 -1.72769993157161,0.12787763682879 -2.5,0.375 -0.76201642029962,0.23685666347441 -1.47626692863481,0.56752296304924 -2.125,1 -0.63844519099044,0.43250675535207 -1.1726317379504,0.95496515930726 -1.6875,1.5625 -0.51487434783483,0.59726401287215 -0.95209181651001,1.2791914951122 -1.3125,2 -0.350114217328,0.71053372285152 -0.61684981544524,1.43651237419192 -0.8125,2.25 -0.18535458110399,0.8135056978093 -0.312500633292,1.6453201675194 -0.3125,2.5 -6.3329244e-7,1.01945171750904 0.19107612035999,1.97841223940922 0.5,2.8125 0.31921911238798,0.83409526742204 0.74613913951723,1.5277508926672 1.3125,2.125 0.57665343648875,0.5869548940343 1.26959371100396,1.0454825965292 2.0625,1.375 0.79289733022595,0.3192204407568 1.61512970912121,0.4999997528616 2.5625,0.5 0.7620024415296,-2.471398e-7 1.48655039140964,-0.063930948598 2.125,-0.1875 0.64872865376516,-0.12356917497 1.24613055145517,-0.3050638378056 1.8125,-0.5625 0.57664484842677,-0.2677325688468 1.15202116156716,-0.598398868422 1.6875,-1 0.54575090194599,-0.4118955302305 1.12112721508596,-0.9439360250007 1.6875,-1.5 L 79,98.1875 c -0.11328480087199,-0.123564711032 -0.23084876224802,-0.17791332167599 -0.375,-0.25 -0.14417669301599,-0.08237471316 -0.28305088821202,-0.1249951808 -0.4375,-0.125 -0.23685307996801,4.81920196e-6 -0.50215797662158,-0.00957727162 -0.6875,0.0625 -0.18536531618,0.072086693768 -0.32495486210399,0.19923274595799 -0.5,0.3125 -0.164769923368,0.113276120134 -0.37715691083601,0.25143496459799 -0.5625,0.375 -0.18536425039601,0.12357319097201 -0.388169147052,0.19923203543601 -0.625,0.3125 -0.22655332150001,0.11327540960998 -0.50358636115848,0.2404214618 -0.8125,0.3125 -0.308931927088,0.072085427184 -0.64031357739395,0.06250333637 -1.0625,0.0625 -0.89588411804596,3.33636936e-6 -1.59912183410596,-0.2454220279256 -2.0625,-0.75 -0.45309275690364,-0.50456978561232 -0.66691044583364,-1.28346634613762 -0.6875,-2.375 1.83293654756324,-0.185347182394 3.35769129178844,-0.42047510514408 4.5625,-0.75 1.21508642501716,-0.32951037547041 2.16446485610194,-0.72410737650542 2.875,-1.1875 0.72080708384156,-0.47367315150014 1.21165781243155,-1.01744178927524 1.5,-1.625 0.28831367396801,-0.60753806893888 0.43748531070683,-1.26887066808908 0.4375,-2 -1.468929317e-5,-0.49426437385148 -0.13817353376,-1.00570998553164 -0.375,-1.5 -0.23685513430399,-0.49426289102064 -0.54692655079,-0.92118291815072 -1,-1.3125 -0.45310004748843,-0.40158472776176 -1.0181789190832,-0.752845910427 -1.6875,-1 -0.65904688583446,-0.2471223631716 -1.39532297871961,-0.37498376609159 -2.25,-0.375 z M 50.6875,86.5 c -0.7723177388292,1.61103394e-5 -1.46668871480436,0.28806194227441 -2.1875,0.875 -0.72082836864284,0.5869685175426 -1.44466096779284,1.40848554570771 -2.0625,2.5 l 0,-1.8125 c -6.5337232e-6,-0.5251541962096 -0.096975612008,-0.89844096342452 -0.375,-1.125 -0.278036621348,-0.23682513787239 -0.69322850547119,-0.3749839823376 -1.1875,-0.375 l -2.4375,0 -1.9375,16.0625 4.6875,0 0.875,-7.1875 c 0.380998664428,-1.58579642131402 0.8299442761064,-2.78946695677908 1.4375,-3.5 0.61783798186876,-0.72080918451861 1.332088490204,-1.06248827636865 2.125,-1.0625 0.47367190036164,1.172363135e-5 0.97482007049676,0.14846800964159 1.5,0.375 L 52,86.8125 C 51.5777934665008,86.6168647209844 51.11998111473564,86.5000161103392 50.6875,86.5 z m 38.8125,0 c -0.97826314068276,1.609489318e-5 -1.80049551957804,0.19109284854321 -2.5625,0.5 -0.75171715610804,0.30893841447399 -1.41233440452844,0.6726430908739 -1.9375,1.1875 -0.51487444051158,0.50458827465948 -0.91976888309161,1.14317993852964 -1.1875,1.8125 -0.267735040232,0.6590479052804 -0.37500156006,1.29978562134076 -0.375,2 -1.56006161e-6,0.58696388369619 0.074941933672,1.08811205383128 0.25,1.5 0.17505442103599,0.40160871563982 0.399169551508,0.77418013212508 0.6875,1.0625 0.298622839144,0.2780385675612 0.63958658026318,0.50215369803603 1,0.6875 0.37070383328,0.18536103759601 0.74399060049645,0.35584290815602 1.125,0.5 0.391297557908,0.14417083892199 0.75428688357962,0.24113991720797 1.125,0.375 0.37070156269598,0.12357556967801 0.71166530381672,0.32494976487399 1,0.5 0.29861859145198,0.16476482613599 0.5124362803808,0.3256646058808 0.6875,0.5625 0.17504876773999,0.22654878032881 0.312492261476,0.52489205380878 0.3125,0.875 -7.73852319e-6,0.2883324719372 -0.074235881528,0.55506807005214 -0.1875,0.8125 -0.11327925570401,0.25743937499439 -0.27346368471601,0.49185194701398 -0.5,0.6875 -0.216253006968,0.19565413877 -0.48298860508363,0.32423089241999 -0.8125,0.4375 -0.319226449312,0.113274266594 -0.70281065807082,0.1875024096 -1.125,0.1875 -0.5251738591644,2.4096e-6 -0.9726887693844,-0.053630850314 -1.3125,-0.1875 -0.329521465808,-0.13386392888403 -0.63816218083448,-0.283035565624 -0.875,-0.4375 -0.23684378138002,-0.16475577469001 -0.38744611958001,-0.303629969884 -0.5625,-0.4375 -0.17505860694401,-0.133863048454 -0.40875582823197,-0.187496308368 -0.625,-0.1875 -0.216247724384,3.691632e-6 -0.39774238722001,0.032326717724 -0.5625,0.125 -0.15446259628401,0.092680387506 -0.26172911611199,0.19994690733598 -0.375,0.375 l -0.9375,1.5 c 0.23684092384399,0.2780322037456 0.48298163886759,0.5131601264958 0.8125,0.75 0.339814335292,0.2368417270428 0.71310110250759,0.4499440652421 1.125,0.625 0.41189519041517,0.175056552604 0.84911265909,0.282323072434 1.3125,0.375 0.47367843408514,0.102974168312 0.9954214873104,0.187499752862 1.5,0.1875 0.98854827164278,-2.471384e-7 1.8842934428128,-0.138874442334 2.6875,-0.4375 0.80319191423244,-0.3089225821652 1.49613218874762,-0.7351272585654 2.0625,-1.25 0.56634905962041,-0.5251672945487 0.95136396984084,-1.1225691922388 1.25,-1.8125 0.30891210967199,-0.689924289484 0.4999888633224,-1.4254850316392 0.5,-2.1875 C 92.9999888633224,96.62114700161004 92.872842811132,96.15160650683984 92.6875,95.75 92.51243289767198,95.33810984503119 92.28831776719998,94.9758358700912 92,94.6875 91.711661905664,94.39918000855558 91.43319816454244,94.13315976117016 91.0625,93.9375 90.69178348542399,93.73156014331559 90.2662941597556,93.52947059739 89.875,93.375 89.483689776244,93.21025038832598 89.12070045057359,93.07137619313201 88.75,92.9375 c -0.37071422854402,-0.14415431153799 -0.71167796966326,-0.272731065188 -1,-0.4375 -0.28833383120001,-0.16474870035 -0.50215152012881,-0.34624336318521 -0.6875,-0.5625 -0.175061433588,-0.22653268543519 -0.250004927324,-0.49326828355072 -0.25,-0.8125 -4.9273232e-6,-0.54575207585366 0.19250252778799,-1.0145772198937 0.625,-1.375 0.43248632008962,-0.37069447291159 1.06149589314477,-0.56248657729168 1.875,-0.5625 0.44278187720364,1.342270851e-5 0.81606864441881,0.02203900726 1.125,0.125 0.319211636448,0.10298752923561 0.57564979301844,0.24114637369999 0.8125,0.375 0.24712881966398,0.12358202617119 0.502136274774,0.27203831218119 0.6875,0.375 0.18534361433198,0.1029868341584 0.32493316025599,0.12501241870801 0.5,0.125 0.16474822152,1.241870828e-5 0.334514741348,-7.029320217e-4 0.4375,-0.0625 0.10296326332799,-0.0720694713068 0.19921699088,-0.21022831577159 0.3125,-0.375 l 1,-1.375 c -0.53547846772516,-0.53545190033905 -1.21740594996515,-0.9726693690142 -2,-1.3125 C 91.4151827091092,86.7124030823632 90.50914009639403,86.50001609489319 89.5,86.5 z m 59.625,0 c -1.0400515433683,1.609489318e-5 -2.0842530005487,0.28806192682799 -3.0625,0.875 -0.9782639593291,0.57667107599762 -1.8218065720443,1.50330857180276 -2.625,2.6875 L 143.5,88 c -5.9158772e-6,-0.432477268643 -0.085962201888,-0.74183333439809 -0.3125,-0.9375 -0.216251524136,-0.1956355261544 -0.5359050314375,-0.31248413679921 -0.9375,-0.3125 l -1.9375,0 -1.875,15.875 3.8125,0 0.875,-7.8125 c 0.216240464692,-0.78259659865041 0.4726786212608,-1.48654966544034 0.8125,-2.125 0.339808743784,-0.63843050169721 0.7130955109996,-1.17190169792706 1.125,-1.625 0.4118895989072,-0.4530751946254 0.8594045091273,-0.81534916956548 1.3125,-1.0625 0.4530780058256,-0.24712562230999 0.8902954745009,-0.37498702523042 1.3125,-0.375 0.5251586755944,1.297476994e-5 0.8778505597196,0.19108972841958 1.125,0.5 0.247127012464,0.2986378682516 0.374988415384,0.75788092147702 0.375,1.4375 -1.1584616e-5,0.0514981744948 0.01028585692,0.10513143440959 0,0.1875 -1.15691696e-5,0.0720928258928 -0.03161924452,0.26316957954239 -0.0625,0.5 -0.02060637504,0.23685118008918 -0.073524284216,0.53662515502944 -0.125,1 -0.051498545204,0.45309607782684 -0.094834363572,1.13430820933668 -0.1875,1.9375 -0.092688033352,0.8032066807566 -0.230846877816,1.78490813793663 -0.375,3 -0.144174808584,1.20480327116516 -0.294061796056,2.6972349892953 -0.5,4.4375 l 3.8125,0 1.1875,-10.125 c 0.0205795296,-0.21623586173681 0.05218720498,-0.42933819993605 0.0625,-0.625 0.02057948328,-0.20593781779161 -1.53998164e-5,-0.36683759753681 0,-0.5625 -1.53998164e-5,-0.772295650828 -0.064661452008,-1.47553336688816 -0.25,-2.0625 -0.185368791564,-0.59723736825553 -0.4726992727695,-1.09838553839032 -0.8125,-1.5 -0.339829395292,-0.41188220019916 -0.7660340716936,-0.73153570749932 -1.25,-0.9375 -0.473694698886,-0.21623017755201 -0.9755582197511,-0.31248390510682 -1.5625,-0.3125 z m 12.8125,0 c -1.1018327018075,1.609489318e-5 -2.040913691348,0.2124030823632 -2.875,0.5625 -0.8340967193604,0.35012805708439 -1.5586446692408,0.78806087648968 -2.125,1.375 -0.5663615401135,0.57667002565904 -0.9616738918788,1.25859750789928 -1.25,2 -0.288329753416,0.73112944003402 -0.437501390154,1.47770297446407 -0.4375,2.25 -1.390154e-6,0.80320916758718 0.138157454312,1.51745967592248 0.375,2.125 0.247136480956,0.59725852948756 0.5256002220768,1.09840669962234 0.9375,1.5 0.4118943099844,0.40160593533224 0.9020296878445,0.67935432572195 1.4375,0.875 0.5457594282232,0.19565651747799 1.1527434167284,0.3125051281236 1.75,0.3125 0.7002191051828,5.1281235e-6 1.2557158859628,-0.10583069024599 1.75,-0.25 0.494268791452,-0.14415862101399 0.983688818582,-0.35726095921439 1.375,-0.625 -0.329526624824,0.72082578913492 -0.5000084953851,1.40275327137496 -0.5,2 -8.4953851e-6,0.18535765488799 -0.02060337848,0.335244642356 0,0.5 0.03088375204,0.16476227751998 0.083801661204,0.33524414807999 0.125,0.5 -0.36041854786,-0.061781590932 -0.72340787353,-0.094104617026 -1.125,-0.125 -0.40160710924,-0.041186599718 -0.82781178564,-0.062496833538 -1.25,-0.0625 -0.8649900479955,3.16646168e-6 -1.7497224268908,0.085244101742 -2.625,0.25 -0.8649874375956,0.15446431080599 -1.6747763227556,0.4417947920109 -2.375,0.8125 -0.7002262721984,0.3604120450288 -1.2447102607036,0.8402499813442 -1.6875,1.4375 -0.4427889052044,0.5972514088099 -0.6874989187692,1.312217267875 -0.6875,2.1875 1.0812308e-6,0.586951773911 0.201375276428,1.1410178532313 0.5,1.625 0.28832856406,0.4942733326218 0.7042357989152,0.8895856843866 1.25,1.25 0.5560603914917,0.3604055113056 1.2276904321864,0.679343667876 2,0.875 0.782601773112,0.2059432857304 1.6467392689172,0.2499944548304 2.625,0.25 1.1944961757733,-5.5451696e-6 2.2401283344136,-0.12858229882 3.1875,-0.4375 0.9473547366013,-0.30892786475 1.7784538555812,-0.71453765806 2.4375,-1.25 0.6590243962332,-0.525172546241 1.1498751248232,-1.1644795608412 1.5,-1.875 0.350100099544,-0.700226936383 0.4999870870148,-1.4048953539032 0.5,-2.1875 -1.29129852e-5,-0.556060746753 -0.07495640672,-1.0778037999782 -0.25,-1.5 -0.17506889408,-0.4221927400831 -0.356563556916,-0.8167897411182 -0.5625,-1.1875 -0.205960600868,-0.3707044202352 -0.387455263704,-0.71238351208505 -0.5625,-1.0625 -0.175067751064,-0.36040591290561 -0.2500112448,-0.76530035548554 -0.25,-1.1875 -1.12448008e-5,-0.39129701729441 0.03231178128,-0.7432735506891 0.125,-1.0625 0.102962877172,-0.32951139491681 0.220526838548,-0.6491649022166 0.375,-0.9375 0.154449621512,-0.2986181898508 0.324931492072,-0.59696146333076 0.5,-0.875 0.175043979432,-0.28831989876721 0.35582329154,-0.55577084761228 0.5,-0.875 0.154448648404,-0.3192112657408 0.27201260978,-0.69178268222554 0.375,-1.0625 0.102961131756,-0.38099478744161 0.124986716308,-0.77630713920624 0.125,-1.25 -1.32836932e-5,-0.24712696612561 0.03087904096,-0.52344465505546 0,-0.75 C 167.10439191044,90.39846859659519 167.051474001264,90.20596114148531 167,90 l 1.625,-0.4375 c 0.226528623096,-0.0617715045924 0.386713052112,-0.19993034905761 0.5,-0.375 0.123553852384,-0.17504283641799 0.208794787664,-0.3778477330732 0.25,-0.625 l 0.1875,-1.25 -4.4375,0 c -0.4428005670508,-0.26771780232281 -0.964543620276,-0.42861758206801 -1.5,-0.5625 -0.5251785084572,-0.14414808673719 -1.1005548215972,-0.24998390510682 -1.6875,-0.25 z M 102.75,86.5625 c -0.854695556666,1.606400095e-5 -1.6232946756464,0.12787746692079 -2.375,0.375 -0.74142145997884,0.24715391966561 -1.43436173449405,0.55722533615048 -2.0625,1 -0.61785029245404,0.44280398065112 -1.19322660559396,0.95496494306124 -1.6875,1.5625 -0.49427951108316,0.60756122272488 -0.9101867459384,1.27919126341996 -1.25,2 -0.33981686846001,0.72083091725804 -0.5646473496672,1.50930956859824 -0.75,2.3125 -0.175057263128,0.80320804001792 -0.31250075686,1.60341483436312 -0.3125,2.4375 -7.568616e-7,0.99885667995744 0.14917087988,1.9365069680377 0.4375,2.75 0.298624167512,0.80320286555634 0.71453140236756,1.48584569852621 1.25,2.0625 0.53546371664764,0.5663599954981 1.18578352352245,0.9932800226282 1.9375,1.3125 0.75170773395359,0.3089230146588 1.57322476211878,0.4374997683076 2.5,0.4375 0.720812937934,-2.316939e-7 1.3924429786292,-0.00143093315 2,-0.125 0.6075392582929,-0.123569159524 1.2042258052531,-0.3675638223596 1.75,-0.625 0.5457529717304,-0.2574351273016 1.0998190510508,-0.535898868422 1.625,-0.9375 0.5251565131328,-0.4015981041319 1.0167225924528,-0.8917334819917 1.5625,-1.4375 L 106.4375,98.5 c -0.082392259992,-0.11326757840999 -0.188943429092,-0.19850851369002 -0.3125,-0.25 -0.123581655464,-0.061780200778 -0.251443058384,-0.062495551508 -0.375,-0.0625 -0.205960693548,4.44849212e-6 -0.387455356384,0.032327474588 -0.5625,0.125 -0.175067843744,0.082383718268 -0.377157389668,0.18893488736799 -0.5625,0.3125 -0.175067303128,0.12357311373999 -0.346264524416,0.22054219202597 -0.5625,0.375 -0.205958994468,0.15446497498999 -0.4822766833996,0.313934053276 -0.75,0.4375 -0.25744541444,0.12357227964797 -0.524896363286,0.21982600720197 -0.875,0.3125 -0.350121338008,0.082382250884 -0.7344208974976,0.125002718524 -1.1875,0.125 -2.11097999610956,2.71852331e-6 -3.18750447938476,-1.2580164275869 -3.1875,-3.75 l 0,-0.1875 c 1.93591162719802,-0.19564443858599 3.5040021897932,-0.42047491979028 4.75,-0.75 1.2562767318124,-0.33980761621561 2.2688705136276,-0.7866071757056 3,-1.25 0.7311050196636,-0.46337552460156 1.2219557482536,-0.9755364870115 1.5,-1.5625 0.288314183688,-0.58694306227981 0.43748582043,-1.2269654276098 0.4375,-1.9375 -1.417957e-5,-0.4427771506804 -0.106565348668,-0.91160229472044 -0.3125,-1.375 -0.205962392624,-0.46337064361641 -0.5153184583788,-0.87927787847165 -0.9375,-1.25 -0.4119099723852,-0.38098998368716 -0.9343683763404,-0.70064349098732 -1.5625,-0.9375 -0.6178569343004,-0.23682509153402 -1.3534176764556,-0.31248393599923 -2.1875,-0.3125 z m 6.1875,0.1875 2.6875,15.875 2.875,0 c 0.360403209828,0 0.6271388079436,-0.23441257202 0.8125,-0.6875 l 3.75,-9.125 c 0.082368117652,-0.20593871366879 0.177906494476,-0.42933849341384 0.25,-0.625 l 0.1875,-0.625 c 0.0308805392,0.38101579421162 0.063203565312,0.77561279524674 0.125,1.1875 l 1.5625,9.1875 c 0.072068590876,0.4530874279801 0.243265812164,0.6875 0.5625,0.6875 l 2.9375,0 6.5625,-15.875 -2.8125,0 c -0.236861482676,1.584775482e-5 -0.4396663793296,0.0536491076696 -0.625,0.1875 -0.185373718888,0.13388218623957 -0.302937680264,0.35656661525479 -0.375,0.5625 l -3.0625,8.43749999999992 c -0.175072832852,0.46339084718693 -0.3661495865,0.94251343277196 -0.5,1.375 -0.123585238972,0.43249722507477 -0.199244083436,0.81751213529489 -0.3125,1.25 -0.04120547492,-0.43248786470511 -0.136028501016,-0.81750277492523 -0.1875,-1.25 -0.051502762004,-0.43248656722804 -0.052933463464,-0.91160915281307 -0.125,-1.375 L 121.875,87.4375 c -0.03090639608,-0.2059333538532 -0.095552448272,-0.36611778286841 -0.25,-0.5 C 121.470524768764,86.803649138562 121.267719872108,86.75001587864679 121,86.75 l -1.6875,0 c -0.226554943344,1.587864696e-5 -0.377157281544,0.053649138562 -0.5625,0.1875 -0.185364621104,0.13388221713198 -0.355131140932,0.2940666461468 -0.4375,0.5 l -3.4375,8.49999999999992 c -0.185360775012,0.46339084718693 -0.387450320936,0.94251343277196 -0.5625,1.375 -0.164765382196,0.43249722507477 -0.283044694304,0.81751213529489 -0.4375,1.25 -0.020600938,-0.43248786470511 -0.052208613348,-0.81750277492523 -0.0625,-1.25 -6.0394468e-6,-0.43248656722804 -0.01101883172,-0.91160915281307 -0.0625,-1.375 L 112.8125,87.5 c -0.02059988764,-0.20593338474521 -0.137448498288,-0.42861781376044 -0.3125,-0.5625 -0.175060985648,-0.13385089233041 -0.357270999216,-0.1874841522452 -0.625,-0.1875 l -2.9375,0 z m 24.1875,0 -1.9375,15.875 3.75,0 1.9375,-15.875 -3.75,0 z m 28.4375,2.375 c 0.689919871884,1.35153855e-5 1.202080834294,0.15061585358562 1.5625,0.5625 0.360400661212,0.41190994149292 0.499990207138,1.0402041638182 0.5,1.8125 -9.792862e-6,0.4530978695806 -0.06394049432,0.86972045516571 -0.1875,1.3125 -0.123578720696,0.4325016735674 -0.252870825076,0.8373961161474 -0.5,1.1875 -0.23684985172,0.35012109086881 -0.5873956836552,0.65876180589376 -0.9375,0.875 -0.350120658376,0.2162537020448 -0.7241227763216,0.3125074296004 -1.1875,0.3125 -0.6796370732931,7.4296004e-6 -1.2020954772483,-0.19250002550999 -1.5625,-0.625 -0.350117878068,-0.4324838178127 -0.5000048655388,-1.08208827395769 -0.5,-1.875 -4.8655388e-6,-0.46337425801686 0.01172327748,-0.87999684360196 0.125,-1.3125 0.12356407774,-0.4324806359047 0.325653623664,-0.85796996157464 0.5625,-1.1875 0.236835224212,-0.3398026579996 0.5248810561468,-0.61683569765964 0.875,-0.8125 0.350106030868,-0.20593531551441 0.7866081488132,-0.24998648461479 1.25,-0.25 z m -59,0.0625 c 0.319211234848,1.34072624e-5 0.5962442745084,0.032336433356 0.8125,0.125 0.22653359676,0.0823926770376 0.366123142684,0.24114640459278 0.5,0.375 0.144153647352,0.1235820570636 0.250704816452,0.27275369380359 0.3125,0.4375 0.072071355736,0.16477132896679 0.124989264924,0.28305064107199 0.125,0.4375 -1.07350776e-5,0.31923224161882 -0.043346553448,0.65948063200862 -0.1875,0.9375 -0.133877058116,0.27804164134599 -0.4425177731412,0.50287212255128 -0.875,0.75 -0.4222041393452,0.2471485752956 -1.0299034785804,0.4815611473158 -1.8125,0.6875 -0.772314819506,0.20595819126957 -1.7856239520512,0.38745285410398 -3.0625,0.5625 0.154456603176,-0.6281338942446 0.367558941376,-1.1623204412046 0.625,-1.6875 0.267727672416,-0.5354553293854 0.58738117971596,-0.99398303188057 0.9375,-1.375 0.360403580536,-0.38099256319521 0.7447031400265,-0.73153839513002 1.1875,-0.9375 0.4427817845268,-0.2162328651828 0.922619720842,-0.3124865927376 1.4375,-0.3125 z M 60,89.625 c 0.45307768145644,1.300566228e-5 0.79404142257637,0.0756718501272 1,0.3125 0.205938466532,0.236853450674 0.249989635632,0.48227881496906 0.25,0.75 -1.03643696e-5,0.2677449721088 -0.063941065832,0.57567033640414 -0.1875,0.8125 -0.113281866104,0.22655451085198 -0.285194438124,0.41906196596194 -0.625,0.625 -0.339824560648,0.19566158381799 -0.819662496962,0.38745368819598 -1.4375,0.5625 -0.61785362882324,0.16476874945801 -1.43865530625839,0.34554806156397 -2.4375,0.5 0.29861971902001,-1.10181513952972 0.71524230460524,-1.99684495996988 1.3125,-2.625 0.5972437320712,-0.6384283701278 1.33208912349596,-0.93748699433772 2.125,-0.9375 z m 14.9375,0 c 0.45307768145641,1.300566228e-5 0.79404142257636,0.0756718501272 1,0.3125 0.205938466532,0.236853450674 0.31248963563201,0.48227881496906 0.3125,0.75 -1.036436961e-5,0.2677449721088 -0.063941065828,0.57567033640414 -0.1875,0.8125 -0.113281866104,0.22655451085198 -0.34769443812399,0.41906196596194 -0.6875,0.625 -0.339824560648,0.19566158381799 -0.819662496962,0.38745368819598 -1.4375,0.5625 -0.61785362882325,0.16476874945801 -1.4386553062584,0.34554806156397 -2.4375,0.5 0.29861971902,-1.10181513952972 0.77774230460518,-1.99684495996988 1.375,-2.625 0.59724373207121,-0.6384283701278 1.26958912349596,-0.93748699433772 2.0625,-0.9375 z m 85.4375,11.9375 c 0.4118905411224,1.0194462e-6 0.8491080097977,0.021311253264 1.3125,0.0625 0.4736737847929,0.041190662058 0.9439296302928,0.157323921972 1.5,0.25 0.02058549184,0.123569870048 0.052193167192,0.230836389878 0.0625,0.375 0.02058544548,0.133866894546 0.0624905624,0.293335972832 0.0625,0.4375 -9.4376004e-6,0.4015995560705 -0.116858048244,0.7748863232854 -0.3125,1.125 -0.185362813904,0.3501112980068 -0.472693295108,0.6175622468519 -0.8125,0.875 -0.339823417632,0.257433551794 -0.7138255355768,0.48083333154 -1.1875,0.625 -0.4736887366704,0.144161262306 -0.9858496990804,0.187497080676 -1.5625,0.1875 -1.0297481705,-2.919323e-6 -1.8182268218404,-0.118282231428 -2.3125,-0.4375 -0.4942797273296,-0.3192226495564 -0.7500025331692,-0.8196554689618 -0.75,-1.4375 -2.5331692e-6,-0.2780315395612 0.1058332852,-0.5028620207662 0.25,-0.75 0.154458642068,-0.2471384735108 0.368276330996,-0.5021459286199 0.6875,-0.6875 0.329514175224,-0.18535326818 0.7557188516244,-0.324227463374 1.25,-0.4375 0.5045691832125,-0.113270837548 1.1122685224476,-0.187498980554 1.8125,-0.1875 z"
     id="path3954"
     inkscape:connector-curvature="0" />
</svg>
